Coordinates
version=1
nRows=17
nColumns=40
inDegrees=yes

Units are S.I. units (second, meters, Newtons, ...)
If the header above contains a line with 'inDegrees', this indicates whether rotational values are in degrees (yes) or radians (no).

endheader
time	pelvis_tilt	pelvis_list	pelvis_rotation	pelvis_tx	pelvis_ty	pelvis_tz	hip_flexion_r	hip_adduction_r	hip_rotation_r	knee_angle_r	knee_angle_r_beta	ankle_angle_r	subtalar_angle_r	mtp_angle_r	hip_flexion_l	hip_adduction_l	hip_rotation_l	knee_angle_l	knee_angle_l_beta	ankle_angle_l	subtalar_angle_l	mtp_angle_l	lumbar_extension	lumbar_bending	lumbar_rotation	arm_flex_r	arm_add_r	arm_rot_r	elbow_flex_r	pro_sup_r	wrist_flex_r	wrist_dev_r	arm_flex_l	arm_add_l	arm_rot_l	elbow_flex_l	pro_sup_l	wrist_flex_l	wrist_dev_l
      7.12500000	      8.18682396	      3.76152745	     -5.20916456	     -0.43734749	      0.87643270	     -0.75063099	     38.05297058	     -2.80996986	     -4.55019603	     80.64990806	      1.40760644	     22.78314305	      0.00000000	      0.00000000	     56.12784549	    -13.10028655	    -10.09804604	     13.99321881	      0.24422774	      2.97099622	      0.00000000	      0.00000000	    -22.76512135	      3.91510616	     12.26620659	     89.96686055	    -14.42146820	     14.55067494	     45.88324963	     78.60416784	      0.00000000	      0.00000000	     89.96482102	     -7.55297989	     13.13871206	     43.97104643	     77.25709763	      0.00000000	      0.00000000
      7.13000000	      8.12985854	      3.77090063	     -5.24726054	     -0.43776869	      0.87712302	     -0.75078871	     38.04873118	     -2.84628130	     -4.60133887	     80.41254545	      1.40346368	     22.70855026	      0.00000000	      0.00000000	     56.12642002	    -13.20606320	    -10.14945293	     13.94968658	      0.24346796	      3.06698013	      0.00000000	      0.00000000	    -22.71099055	      3.98233723	     12.28929268	     89.96702565	    -14.34531552	     14.55233373	     45.96007740	     78.58639458	      0.00000000	      0.00000000	     89.96477005	     -7.66987317	     13.12967243	     43.92944909	     77.26078404	      0.00000000	      0.00000000
      7.13500000	      8.12584463	      3.75864683	     -5.25291701	     -0.43812630	      0.87787833	     -0.75091085	     37.98337489	     -2.83988153	     -4.60441877	     80.21158258	      1.39995621	     22.60294141	      0.00000000	      0.00000000	     56.07997587	    -13.30344588	    -10.24006430	     13.89806495	      0.24256699	      3.16625332	      0.00000000	      0.00000000	    -22.66359131	      4.08772877	     12.29845030	     89.96697035	    -14.22758957	     14.57754395	     45.95115520	     78.55826952	      0.00000000	      0.00000000	     89.96460619	     -7.76073065	     13.18179597	     43.82317054	     77.27648834	      0.00000000	      0.00000000
      7.14000000	      8.12120755	      3.77224636	     -5.22831706	     -0.43838748	      0.87858754	     -0.75118134	     37.98167791	     -2.87573153	     -4.59165423	     80.16950028	      1.39922174	     22.58799943	      0.00000000	      0.00000000	     56.05338184	    -13.35336974	    -10.25001437	     13.89240285	      0.24246817	      3.18348254	      0.00000000	      0.00000000	    -22.63668664	      4.12924658	     12.28483231	     89.96706536	    -14.23445412	     14.56307004	     45.97509221	     78.55275107	      0.00000000	      0.00000000	     89.96458098	     -7.77476234	     13.17863944	     43.84026949	     77.27840244	      0.00000000	      0.00000000
      7.14500000	      8.18506895	      3.70162784	     -5.23534492	     -0.43865253	      0.87949426	     -0.75125808	     37.80504497	     -2.82999815	     -4.65296036	     79.91038877	      1.39469939	     22.33620785	      0.00000000	      0.00000000	     55.92847195	    -13.47592680	    -10.34271759	     13.81836812	      0.24117602	      3.45205128	      0.00000000	      0.00000000	    -22.68233914	      4.26033163	     12.25848841	     89.96718432	    -14.10208215	     14.61349637	     45.94668988	     78.46801267	      0.00000000	      0.00000000	     89.96459091	     -7.94681977	     13.35017792	     43.73697510	     77.33143158	      0.00000000	      0.00000000
      7.15000000	      8.16905880	      3.72000705	     -5.21650288	     -0.43896055	      0.88013975	     -0.75146918	     37.81527580	     -2.86675467	     -4.64015953	     79.86022741	      1.39382391	     22.32926886	      0.00000000	      0.00000000	     55.92086860	    -13.52598626	    -10.34341108	     13.81249837	      0.24107357	      3.46800788	      0.00000000	      0.00000000	    -22.65328893	      4.28378515	     12.25500297	     89.96727102	    -14.09893750	     14.59884466	     45.98101145	     78.46233712	      0.00000000	      0.00000000	     89.96465757	     -7.95559927	     13.34311367	     43.76683191	     77.33310880	      0.00000000	      0.00000000
      7.15500000	      8.13170435	      3.77486596	     -5.19795221	     -0.43929811	      0.88090593	     -0.75165348	     37.77543851	     -2.93111864	     -4.61705108	     79.61660958	      1.38957198	     22.26126464	      0.00000000	      0.00000000	     55.90951481	    -13.55023347	    -10.38402587	     13.78290143	      0.24055701	      3.57462854	      0.00000000	      0.00000000	    -22.57229550	      4.32498009	     12.26347653	     89.96723663	    -14.05821255	     14.58509502	     46.02487921	     78.44064013	      0.00000000	      0.00000000	     89.96441308	     -8.02132025	     13.37440433	     43.70682573	     77.34474725	      0.00000000	      0.00000000
      7.16000000	      8.14553942	      3.80603608	     -5.16800547	     -0.43953693	      0.88172866	     -0.75182867	     37.69303687	     -2.97028211	     -4.59721924	     79.44290058	      1.38654018	     22.18525518	      0.00000000	      0.00000000	     55.86352231	    -13.57221602	    -10.38598011	     13.75941666	      0.24014712	      3.66680364	      0.00000000	      0.00000000	    -22.55361050	      4.34658891	     12.22918595	     89.96726325	    -14.02776440	     14.58503544	     46.03765377	     78.41518648	      0.00000000	      0.00000000	     89.96438390	     -8.07032370	     13.41353734	     43.63926471	     77.35379864	      0.00000000	      0.00000000
      7.16500000	      8.13359918	      3.82542811	     -5.12200958	     -0.43983944	      0.88249077	     -0.75202805	     37.64014169	     -3.00331434	     -4.59826548	     79.25492297	      1.38325935	     22.08226766	      0.00000000	      0.00000000	     55.83808490	    -13.58343813	    -10.41522018	     13.71810387	      0.23942608	      3.77195953	      0.00000000	      0.00000000	    -22.50680021	      4.39602528	     12.20839577	     89.96731250	    -13.99389941	     14.59216146	     46.03708984	     78.38921702	      0.00000000	      0.00000000	     89.96441414	     -8.08777185	     13.45165348	     43.60090172	     77.36451215	      0.00000000	      0.00000000
      7.17000000	      8.12038349	      3.85772268	     -5.08878424	     -0.44015969	      0.88328435	     -0.75213562	     37.59926612	     -3.02995534	     -4.56585169	     79.08775376	      1.38034170	     21.99219059	      0.00000000	      0.00000000	     55.82675870	    -13.60385678	    -10.39079101	     13.70461307	      0.23919062	      3.86514891	      0.00000000	      0.00000000	    -22.46620464	      4.40154445	     12.16304596	     89.96731206	    -13.95986141	     14.59679371	     46.04795599	     78.36248679	      0.00000000	      0.00000000	     89.96441283	     -8.13067014	     13.48869239	     43.56337359	     77.37437920	      0.00000000	      0.00000000
      7.17500000	      8.11637558	      3.90656521	     -5.01752105	     -0.44043325	      0.88413688	     -0.75230853	     37.53736202	     -3.08144811	     -4.53101947	     78.91402596	      1.37730958	     21.90625504	      0.00000000	      0.00000000	     55.80682811	    -13.58231564	    -10.38120287	     13.70366670	      0.23917410	      3.97766509	      0.00000000	      0.00000000	    -22.43826019	      4.40364975	     12.09297349	     89.96734984	    -13.93879951	     14.59012730	     46.06699729	     78.33060075	      0.00000000	      0.00000000	     89.96444853	     -8.16780743	     13.51323073	     43.57406348	     77.38620486	      0.00000000	      0.00000000
      7.18000000	      8.11732684	      3.92874166	     -4.97924567	     -0.44072703	      0.88486131	     -0.75240447	     37.52517137	     -3.10114638	     -4.51912947	     78.86882242	      1.37652063	     21.89273006	      0.00000000	      0.00000000	     55.79456863	    -13.59721563	    -10.37686601	     13.70606804	      0.23921601	      3.99059462	      0.00000000	      0.00000000	    -22.40509700	      4.41835787	     12.08119362	     89.96739877	    -13.93524284	     14.58119314	     46.08742325	     78.32522218	      0.00000000	      0.00000000	     89.96440758	     -8.16780717	     13.51134610	     43.59477641	     77.38763230	      0.00000000	      0.00000000
      7.18500000	      8.12691909	      3.98344347	     -4.88779185	     -0.44099986	      0.88577537	     -0.75266331	     37.40494620	     -3.16176080	     -4.46595640	     78.58997470	      1.37165382	     21.79760387	      0.00000000	      0.00000000	     55.77162608	    -13.53019711	    -10.34620027	     13.72412919	      0.23953124	      4.01731908	      0.00000000	      0.00000000	    -22.34697065	      4.44765689	     12.03283243	     89.96734540	    -13.92849044	     14.58586136	     46.03356921	     78.30136424	      0.00000000	      0.00000000	     89.96425567	     -8.15783066	     13.56477807	     43.49499239	     77.39664363	      0.00000000	      0.00000000
      7.19000000	      8.14697451	      4.03081463	     -4.80950820	     -0.44126771	      0.88670431	     -0.75282565	     37.30624242	     -3.21606985	     -4.44909629	     78.40064860	      1.36834945	     21.71343228	      0.00000000	      0.00000000	     55.74106585	    -13.49310001	    -10.32430834	     13.74740823	      0.23993754	      4.10677703	      0.00000000	      0.00000000	    -22.31971539	      4.44996698	     11.94615920	     89.96737969	    -13.88679184	     14.60270803	     46.00144011	     78.26943340	      0.00000000	      0.00000000	     89.96432927	     -8.17065288	     13.62481158	     43.41378783	     77.41038182	      0.00000000	      0.00000000
      7.19500000	      8.17469758	      4.07110670	     -4.72814169	     -0.44146448	      0.88765105	     -0.75298020	     37.19868641	     -3.25775470	     -4.42200724	     78.22827668	      1.36534100	     21.64589439	      0.00000000	      0.00000000	     55.69795525	    -13.44512907	    -10.30083893	     13.76300220	      0.24020970	      4.17025646	      0.00000000	      0.00000000	    -22.31795797	      4.43460599	     11.87346668	     89.96743630	    -13.89703243	     14.59798604	     45.98327082	     78.23825341	      0.00000000	      0.00000000	     89.96437709	     -8.17423361	     13.65375658	     43.44629966	     77.42034006	      0.00000000	      0.00000000
      7.20000000	      8.20219933	      4.09882501	     -4.63513096	     -0.44175521	      0.88854035	     -0.75317193	     37.09848559	     -3.28876981	     -4.39251277	     78.05501906	      1.36231708	     21.58708385	      0.00000000	      0.00000000	     55.67291916	    -13.39679109	    -10.25959272	     13.78382611	      0.24057315	      4.19973771	      0.00000000	      0.00000000	    -22.29800395	      4.45290031	     11.80237389	     89.96744993	    -13.88871101	     14.60408684	     45.97537526	     78.21023761	      0.00000000	      0.00000000	     89.96436343	     -8.15147954	     13.67919015	     43.42290796	     77.42970459	      0.00000000	      0.00000000
      7.20500000	      8.23531440	      4.14035963	     -4.56732903	     -0.44192975	      0.88944906	     -0.75326710	     36.97927439	     -3.32810149	     -4.37435854	     77.87486212	      1.35917275	     21.52541170	      0.00000000	      0.00000000	     55.63806320	    -13.36209606	    -10.22960859	     13.81869184	      0.24118167	      4.24734856	      0.00000000	      0.00000000	    -22.26786714	      4.44724714	     11.75454197	     89.96747164	    -13.88665766	     14.62228942	     45.91923702	     78.17180200	      0.00000000	      0.00000000	     89.96429192	     -8.14667731	     13.72242240	     43.37729419	     77.44066100	      0.00000000	      0.00000000
